<svg width="649" height="122" viewBox="0 0 649 122" fill="none" xmlns="http://www.w3.org/2000/svg">
<path d="M27.52 86.6L27.1261 87.5191L27.52 86.6ZM13.12 76.88L12.3991 77.5731L12.4059 77.5801L13.12 76.88ZM3.88 62.48L4.80942 62.111L3.88 62.48ZM4 27.68L4.92469 28.0607L4.92661 28.056L4 27.68ZM13.24 13.4L12.5259 12.6999L12.5258 12.7001L13.24 13.4ZM27.4 3.8L27.7923 4.71986L27.7987 4.71707L27.4 3.8ZM58.24 1.88L57.9704 2.84296L57.9794 2.84548L57.9884 2.84782L58.24 1.88ZM69.28 6.44L68.7685 7.29934L68.7774 7.3045L69.28 6.44ZM78.4 13.64L77.6724 14.326L77.6825 14.3367L77.6929 14.3471L78.4 13.64ZM85.24 22.64L85.7545 23.4975L86.5873 22.9978L86.1122 22.1507L85.24 22.64ZM70.84 31.28L69.96 31.7549L70.457 32.676L71.3545 32.1375L70.84 31.28ZM60.4 19.88L59.8759 20.7317L59.8831 20.7361L60.4 19.88ZM34.12 18.44L34.5242 19.3547L34.5338 19.3504L34.12 18.44ZM25 24.68L24.2929 23.9729L24.2875 23.9783L24.2821 23.9839L25 24.68ZM19 33.92L19.9255 34.2986L19 33.92ZM19 56.6L19.9255 56.2214L19 56.6ZM25 65.84L24.2821 66.5361L24.2875 66.5417L24.2929 66.5471L25 65.84ZM34.36 72.08L33.971 73.0013L34.36 72.08ZM62.44 69.2L61.8241 68.4122L61.8171 68.4177L62.44 69.2ZM71.44 55.4L72.4035 55.6676L72.7556 54.4H71.44V55.4ZM43.48 55.4H42.48V56.4H43.48V55.4ZM43.48 39.8V38.8H42.48V39.8H43.48ZM88.96 39.8H89.96V38.8H88.96V39.8ZM85.96 63.2L86.8952 63.5542L86.8969 63.5496L85.96 63.2ZM77.32 77.12L76.5913 76.4351L76.5841 76.4429L77.32 77.12ZM63.88 86.72L64.2823 87.6356L64.2938 87.6304L63.88 86.72ZM46.12 89.2C39.4397 89.2 33.3757 88.0216 27.9139 85.6809L27.1261 87.5191C32.8643 89.9784 39.2003 91.2 46.12 91.2V89.2ZM27.9139 85.6809C22.4259 83.3288 17.7367 80.1606 13.8341 76.1799L12.4059 77.5801C16.5033 81.7594 21.4141 85.0712 27.1261 87.5191L27.9139 85.6809ZM13.8408 76.1869C9.93202 72.1217 6.92226 67.4322 4.80942 62.111L2.95058 62.849C5.15774 68.4078 8.30798 73.3183 12.3992 77.5731L13.8408 76.1869ZM4.80942 62.111C2.69785 56.793 1.64 51.1586 1.64 45.2H-0.36C-0.36 51.4014 0.742146 57.287 2.95058 62.849L4.80942 62.111ZM1.64 45.2C1.64 39.0826 2.73738 33.3728 4.92468 28.0607L3.07532 27.2992C0.78262 32.8672 -0.36 38.8374 -0.36 45.2H1.64ZM4.92661 28.056C7.12076 22.649 10.1312 18.001 13.9542 14.0999L12.5258 12.7001C8.50885 16.799 5.35924 21.671 3.07339 27.304L4.92661 28.056ZM13.9541 14.1001C17.859 10.117 22.4686 6.99023 27.7923 4.71984L27.0077 2.88015C21.4514 5.24976 16.621 8.52298 12.5259 12.6999L13.9541 14.1001ZM27.7987 4.71707C33.1835 2.37586 39.0466 1.2 45.4 1.2V-0.800001C38.7934 -0.800001 32.6565 0.424139 27.0013 2.88293L27.7987 4.71707ZM45.4 1.2C49.8777 1.2 54.0662 1.74981 57.9704 2.84296L58.5096 0.917034C54.4138 -0.229809 50.0423 -0.800001 45.4 -0.800001V1.2ZM57.9884 2.84782C61.9023 3.86543 65.4941 5.35022 68.7685 7.29929L69.7915 5.5807C66.3459 3.52977 62.5777 1.97456 58.4916 0.912176L57.9884 2.84782ZM68.7774 7.3045C72.137 9.25779 75.1006 11.5984 77.6724 14.326L79.1276 12.954C76.4194 10.0816 73.303 7.6222 69.7826 5.57549L68.7774 7.3045ZM77.6929 14.3471C80.3497 17.0039 82.5737 19.9309 84.3679 23.1292L86.1122 22.1507C84.2263 18.7891 81.8903 15.7161 79.1071 12.9329L77.6929 14.3471ZM84.7255 21.7825L70.3255 30.4225L71.3545 32.1375L85.7545 23.4975L84.7255 21.7825ZM71.72 30.8051C68.9286 25.6328 65.3323 21.6899 60.9169 19.0239L59.8831 20.7361C63.9477 23.1901 67.3114 26.8472 69.96 31.7549L71.72 30.8051ZM60.9241 19.0283C56.5802 16.3551 51.4315 15.04 45.52 15.04V17.04C51.1285 17.04 55.8998 18.2848 59.8759 20.7317L60.9241 19.0283ZM45.52 15.04C41.3053 15.04 37.3633 15.8673 33.7062 17.5296L34.5338 19.3504C37.9167 17.8127 41.5747 17.04 45.52 17.04V15.04ZM33.7158 17.5253C30.1638 19.0948 27.0208 21.2449 24.2929 23.9729L25.7071 25.3871C28.2592 22.8351 31.1962 20.8252 34.5242 19.3547L33.7158 17.5253ZM24.2821 23.9839C21.6302 26.7186 19.5611 29.9074 18.0745 33.5414L19.9255 34.2986C21.3189 30.8926 23.2498 27.9214 25.7179 25.3761L24.2821 23.9839ZM18.0745 33.5414C16.5828 37.1877 15.84 41.077 15.84 45.2H17.84C17.84 41.323 18.5372 37.6923 19.9255 34.2986L18.0745 33.5414ZM15.84 45.2C15.84 49.4003 16.5818 53.3299 18.0745 56.9786L19.9255 56.2214C18.5382 52.8301 17.84 49.1597 17.84 45.2H15.84ZM18.0745 56.9786C19.5611 60.6126 21.6302 63.8014 24.2821 66.5361L25.7179 65.1439C23.2498 62.5986 21.3189 59.6274 19.9255 56.2214L18.0745 56.9786ZM24.2929 66.5471C27.0284 69.2826 30.2578 71.4334 33.971 73.0013L34.749 71.1588C31.2622 69.6866 28.2516 67.6774 25.7071 65.1329L24.2929 66.5471ZM33.971 73.0013C37.7043 74.5775 41.7578 75.36 46.12 75.36V73.36C42.0022 73.36 38.2157 72.6225 34.749 71.1588L33.971 73.0013ZM46.12 75.36C52.8621 75.36 58.5342 73.5885 63.0629 69.9823L61.8171 68.4177C57.7058 71.6915 52.4979 73.36 46.12 73.36V75.36ZM63.0559 69.9878C67.6366 66.4065 70.7505 61.6183 72.4035 55.6676L70.4765 55.1324C68.9295 60.7016 66.0434 65.1135 61.8241 68.4122L63.0559 69.9878ZM71.44 54.4H43.48V56.4H71.44V54.4ZM44.48 55.4V39.8H42.48V55.4H44.48ZM43.48 40.8H88.96V38.8H43.48V40.8ZM87.96 39.8V46.28H89.96V39.8H87.96ZM87.96 46.28C87.96 52.0849 86.9799 57.6061 85.0231 62.8504L86.8969 63.5496C88.9401 58.0739 89.96 52.3151 89.96 46.28H87.96ZM85.0248 62.8458C83.07 68.0066 80.2589 72.5334 76.5914 76.4351L78.0486 77.8049C81.9011 73.7066 84.85 68.9534 86.8952 63.5542L85.0248 62.8458ZM76.5841 76.4429C73.0007 80.3379 68.6326 83.4613 63.4662 85.8096L64.2938 87.6304C69.6874 85.1787 74.2793 81.9021 78.0559 77.7971L76.5841 76.4429ZM63.4777 85.8045C58.3408 88.0616 52.5605 89.2 46.12 89.2V91.2C52.7995 91.2 58.8592 90.0184 64.2823 87.6355L63.4777 85.8045ZM117.165 88.04L116.784 88.9647L116.795 88.9691L116.806 88.9733L117.165 88.04ZM106.125 80.84L106.814 80.1154L106.125 80.84ZM98.2047 69.44L97.2889 69.8417L97.2915 69.8476L98.2047 69.44ZM98.0847 38.48L97.1689 38.0783L97.1655 38.0861L98.0847 38.48ZM105.885 26.96L105.195 26.2354L105.187 26.244L105.885 26.96ZM117.045 19.88L117.404 20.8134L117.413 20.8097L117.045 19.88ZM142.845 20L143.254 19.0877V19.0877L142.845 20ZM152.565 27.2L151.8 27.8441L153.565 29.94V27.2H152.565ZM152.565 18.8V17.8H151.565V18.8H152.565ZM168.765 18.8H169.765V17.8H168.765V18.8ZM168.765 89V90H169.765V89H168.765ZM152.565 89H151.565V90H152.565V89ZM152.565 79.88H153.565V76.9734L151.776 79.2647L152.565 79.88ZM142.725 87.68L143.143 88.5885L143.15 88.5851L143.157 88.5815L142.725 87.68ZM140.805 73.88L140.404 72.9638L140.805 73.88ZM151.725 62.24L150.804 61.8494L150.799 61.8614L150.794 61.8735L151.725 62.24ZM151.725 45.32L150.794 45.6865L150.799 45.6986L150.804 45.7105L151.725 45.32ZM147.405 38.48L146.669 39.1571L146.676 39.1645L146.683 39.1719L147.405 38.48ZM140.805 33.8L140.404 34.7162L140.805 33.8ZM124.005 33.8L123.614 32.8794L123.604 32.8838L124.005 33.8ZM112.725 45.2L111.804 44.8094L111.799 44.8214L111.794 44.8335L112.725 45.2ZM112.725 62.36L111.791 62.7171L111.797 62.734L111.804 62.7505L112.725 62.36ZM117.285 69.32L116.563 70.0125L116.57 70.0199L116.578 70.0271L117.285 69.32ZM124.005 73.88L123.604 74.7962L123.614 74.8006L124.005 73.88ZM129.765 89.44C125.654 89.44 121.575 88.6649 117.524 87.1067L116.806 88.9733C121.074 90.6151 125.396 91.44 129.765 91.44V89.44ZM117.545 87.1153C113.583 85.4836 110.007 83.1525 106.814 80.1154L105.435 81.5646C108.803 84.7675 112.587 87.2364 116.784 88.9647L117.545 87.1153ZM106.814 80.1154C103.636 77.0927 101.069 73.4032 99.1178 69.0323L97.2915 69.8476C99.3403 74.4368 102.053 78.3473 105.435 81.5646L106.814 80.1154ZM99.1205 69.0383C97.1841 64.6233 96.2047 59.6032 96.2047 53.96H94.2047C94.2047 59.8368 95.2253 65.1367 97.2889 69.8417L99.1205 69.0383ZM96.2047 53.96C96.2047 48.2291 97.1467 43.2073 99.0038 38.8739L97.1655 38.0861C95.1827 42.7127 94.2047 48.0109 94.2047 53.96H96.2047ZM99.0005 38.8817C100.955 34.426 103.485 30.6965 106.583 27.676L105.187 26.244C101.885 29.4635 99.2147 33.414 97.1689 38.0783L99.0005 38.8817ZM106.574 27.6846C109.76 24.6537 113.368 22.3654 117.404 20.8133L116.686 18.9467C112.401 20.5946 108.569 23.0263 105.195 26.2354L106.574 27.6846ZM117.413 20.8097C121.54 19.1744 125.735 18.36 130.005 18.36V16.36C125.474 16.36 121.029 17.2256 116.676 18.9503L117.413 20.8097ZM130.005 18.36C134.515 18.36 138.654 19.2146 142.435 20.9123L143.254 19.0877C139.195 17.2654 134.774 16.36 130.005 16.36V18.36ZM142.435 20.9123C146.229 22.6158 149.344 24.9282 151.8 27.8441L153.33 26.5559C150.665 23.3918 147.3 20.9042 143.254 19.0877L142.435 20.9123ZM153.565 27.2V18.8H151.565V27.2H153.565ZM152.565 19.8H168.765V17.8H152.565V19.8ZM167.765 18.8V89H169.765V18.8H167.765ZM168.765 88H152.565V90H168.765V88ZM153.565 89V79.88H151.565V89H153.565ZM151.776 79.2647C149.317 82.4152 146.162 84.9207 142.292 86.7785L143.157 88.5815C147.287 86.5993 150.692 83.9048 153.353 80.4953L151.776 79.2647ZM142.307 86.7715C138.445 88.548 134.268 89.44 129.765 89.44V91.44C134.541 91.44 139.005 90.492 143.143 88.5885L142.307 86.7715ZM132.405 76.56C135.57 76.56 138.508 75.9762 141.206 74.7962L140.404 72.9638C137.981 74.0238 135.319 74.56 132.405 74.56V76.56ZM141.206 74.7962C143.889 73.6222 146.204 71.982 148.141 69.8771L146.669 68.5229C144.925 70.418 142.84 71.8978 140.404 72.9638L141.206 74.7962ZM148.141 69.8771C150.068 67.7824 151.572 65.356 152.655 62.6065L150.794 61.8735C149.797 64.404 148.422 66.6176 146.669 68.5229L148.141 69.8771ZM152.645 62.6305C153.821 59.8597 154.405 56.886 154.405 53.72H152.405C152.405 56.634 151.869 59.3403 150.804 61.8494L152.645 62.6305ZM154.405 53.72C154.405 50.6302 153.819 47.697 152.645 44.9294L150.804 45.7105C151.87 48.223 152.405 50.8898 152.405 53.72H154.405ZM152.655 44.9535C151.571 42.2007 150.063 39.8081 148.127 37.7881L146.683 39.1719C148.427 40.9919 149.799 43.1593 150.794 45.6865L152.655 44.9535ZM148.141 37.8029C146.204 35.6979 143.889 34.0578 141.206 32.8838L140.404 34.7162C142.84 35.7822 144.925 37.262 146.669 39.1571L148.141 37.8029ZM141.206 32.8838C138.508 31.7038 135.57 31.12 132.405 31.12V33.12C135.319 33.12 137.981 33.6562 140.404 34.7162L141.206 32.8838ZM132.405 31.12C129.315 31.12 126.382 31.7053 123.614 32.8794L124.395 34.7206C126.908 33.6547 129.574 33.12 132.405 33.12V31.12ZM123.604 32.8838C120.933 34.0523 118.588 35.6421 116.578 37.6529L117.992 39.0671C119.821 37.2379 121.956 35.7877 124.406 34.7162L123.604 32.8838ZM116.578 37.6529C114.562 39.6688 112.971 42.0579 111.804 44.8094L113.645 45.5905C114.718 43.0621 116.168 40.8912 117.992 39.0671L116.578 37.6529ZM111.794 44.8335C110.705 47.5983 110.165 50.5636 110.165 53.72H112.165C112.165 50.7964 112.664 48.0817 113.655 45.5665L111.794 44.8335ZM110.165 53.72C110.165 56.8766 110.705 59.8781 111.791 62.7171L113.659 62.0029C112.664 59.4019 112.165 56.6434 112.165 53.72H110.165ZM111.804 62.7505C112.97 65.4986 114.556 67.9218 116.563 70.0125L118.006 68.6275C116.173 66.7182 114.719 64.5014 113.645 61.9695L111.804 62.7505ZM116.578 70.0271C118.588 72.0378 120.933 73.6277 123.604 74.7962L124.406 72.9638C121.956 71.8923 119.821 70.4421 117.992 68.6129L116.578 70.0271ZM123.614 74.8006C126.382 75.9747 129.315 76.56 132.405 76.56V74.56C129.574 74.56 126.908 74.0253 124.395 72.9594L123.614 74.8006ZM177.992 0.199999V-0.800001H176.992V0.199999H177.992ZM194.312 0.199999H195.312V-0.800001H194.312V0.199999ZM194.312 89V90H195.312V89H194.312ZM177.992 89H176.992V90H177.992V89ZM177.992 1.2H194.312V-0.800001H177.992V1.2ZM193.312 0.199999V89H195.312V0.199999H193.312ZM194.312 88H177.992V90H194.312V88ZM178.992 89V0.199999H176.992V89H178.992ZM223.337 88.04L222.956 88.9647L222.967 88.9691L222.978 88.9733L223.337 88.04ZM212.297 80.84L212.986 80.1154L212.297 80.84ZM204.377 69.44L203.461 69.8417L203.463 69.8476L204.377 69.44ZM204.257 38.48L203.341 38.0783L203.337 38.0861L204.257 38.48ZM212.057 26.96L211.367 26.2354L211.358 26.244L212.057 26.96ZM223.217 19.88L223.576 20.8134L223.585 20.8097L223.217 19.88ZM249.017 20L249.426 19.0877V19.0877L249.017 20ZM258.737 27.2L257.972 27.8441L259.737 29.94V27.2H258.737ZM258.737 18.8V17.8H257.737V18.8H258.737ZM274.937 18.8H275.937V17.8H274.937V18.8ZM274.937 89V90H275.937V89H274.937ZM258.737 89H257.737V90H258.737V89ZM258.737 79.88H259.737V76.9734L257.948 79.2647L258.737 79.88ZM248.897 87.68L249.314 88.5885L249.322 88.5851L249.329 88.5815L248.897 87.68ZM246.977 73.88L246.576 72.9638L246.977 73.88ZM257.897 62.24L256.976 61.8494L256.971 61.8614L256.966 61.8735L257.897 62.24ZM257.897 45.32L256.966 45.6865L256.971 45.6986L256.976 45.7105L257.897 45.32ZM253.577 38.48L252.841 39.1571L252.848 39.1645L252.855 39.1719L253.577 38.48ZM246.977 33.8L246.576 34.7162L246.977 33.8ZM230.177 33.8L229.786 32.8794L229.776 32.8838L230.177 33.8ZM218.897 45.2L217.976 44.8094L217.971 44.8214L217.966 44.8335L218.897 45.2ZM218.897 62.36L217.963 62.7171L217.969 62.734L217.976 62.7505L218.897 62.36ZM223.457 69.32L222.735 70.0125L222.742 70.0199L222.749 70.0271L223.457 69.32ZM230.177 73.88L229.776 74.7962L229.786 74.8006L230.177 73.88ZM235.937 89.44C231.826 89.44 227.747 88.6649 223.696 87.1067L222.978 88.9733C227.246 90.6151 231.568 91.44 235.937 91.44V89.44ZM223.717 87.1153C219.755 85.4836 216.179 83.1525 212.986 80.1154L211.607 81.5646C214.975 84.7675 218.759 87.2364 222.956 88.9647L223.717 87.1153ZM212.986 80.1154C209.808 77.0927 207.241 73.4032 205.29 69.0323L203.463 69.8476C205.512 74.4368 208.225 78.3473 211.607 81.5646L212.986 80.1154ZM205.292 69.0383C203.356 64.6233 202.377 59.6032 202.377 53.96H200.377C200.377 59.8368 201.397 65.1367 203.461 69.8417L205.292 69.0383ZM202.377 53.96C202.377 48.2291 203.319 43.2073 205.176 38.8739L203.337 38.0861C201.355 42.7127 200.377 48.0109 200.377 53.96H202.377ZM205.172 38.8817C207.127 34.426 209.657 30.6965 212.755 27.676L211.358 26.244C208.056 29.4635 205.387 33.414 203.341 38.0783L205.172 38.8817ZM212.746 27.6846C215.932 24.6537 219.54 22.3654 223.576 20.8133L222.858 18.9467C218.573 20.5946 214.741 23.0263 211.367 26.2354L212.746 27.6846ZM223.585 20.8097C227.712 19.1744 231.907 18.36 236.177 18.36V16.36C231.646 16.36 227.201 17.2256 222.848 18.9503L223.585 20.8097ZM236.177 18.36C240.687 18.36 244.826 19.2146 248.607 20.9123L249.426 19.0877C245.367 17.2654 240.946 16.36 236.177 16.36V18.36ZM248.607 20.9123C252.401 22.6158 255.516 24.9282 257.972 27.8441L259.501 26.5559C256.837 23.3918 253.472 20.9042 249.426 19.0877L248.607 20.9123ZM259.737 27.2V18.8H257.737V27.2H259.737ZM258.737 19.8H274.937V17.8H258.737V19.8ZM273.937 18.8V89H275.937V18.8H273.937ZM274.937 88H258.737V90H274.937V88ZM259.737 89V79.88H257.737V89H259.737ZM257.948 79.2647C255.489 82.4152 252.334 84.9207 248.464 86.7785L249.329 88.5815C253.459 86.5993 256.864 83.9048 259.525 80.4953L257.948 79.2647ZM248.479 86.7715C244.617 88.548 240.44 89.44 235.937 89.44V91.44C240.713 91.44 245.176 90.492 249.314 88.5885L248.479 86.7715ZM238.577 76.56C241.742 76.56 244.68 75.9762 247.377 74.7962L246.576 72.9638C244.153 74.0238 241.491 74.56 238.577 74.56V76.56ZM247.377 74.7962C250.061 73.6222 252.376 71.982 254.312 69.8771L252.841 68.5229C251.097 70.418 249.012 71.8978 246.576 72.9638L247.377 74.7962ZM254.312 69.8771C256.24 67.7824 257.744 65.356 258.827 62.6065L256.966 61.8735C255.969 64.404 254.594 66.6176 252.841 68.5229L254.312 69.8771ZM258.817 62.6305C259.993 59.8597 260.577 56.886 260.577 53.72H258.577C258.577 56.634 258.04 59.3403 256.976 61.8494L258.817 62.6305ZM260.577 53.72C260.577 50.6302 259.991 47.697 258.817 44.9294L256.976 45.7105C258.042 48.223 258.577 50.8898 258.577 53.72H260.577ZM258.827 44.9535C257.743 42.2007 256.234 39.8081 254.299 37.7881L252.855 39.1719C254.599 40.9919 255.971 43.1593 256.966 45.6865L258.827 44.9535ZM254.312 37.8029C252.376 35.6979 250.061 34.0578 247.377 32.8838L246.576 34.7162C249.012 35.7822 251.097 37.262 252.841 39.1571L254.312 37.8029ZM247.377 32.8838C244.68 31.7038 241.742 31.12 238.577 31.12V33.12C241.491 33.12 244.153 33.6562 246.576 34.7162L247.377 32.8838ZM238.577 31.12C235.487 31.12 232.554 31.7053 229.786 32.8794L230.567 34.7206C233.08 33.6547 235.746 33.12 238.577 33.12V31.12ZM229.776 32.8838C227.105 34.0523 224.76 35.6421 222.749 37.6529L224.164 39.0671C225.993 37.2379 228.128 35.7877 230.577 34.7162L229.776 32.8838ZM222.749 37.6529C220.734 39.6688 219.143 42.0579 217.976 44.8094L219.817 45.5905C220.89 43.0621 222.34 40.8912 224.164 39.0671L222.749 37.6529ZM217.966 44.8335C216.877 47.5983 216.337 50.5636 216.337 53.72H218.337C218.337 50.7964 218.836 48.0817 219.827 45.5665L217.966 44.8335ZM216.337 53.72C216.337 56.8766 216.877 59.8781 217.963 62.7171L219.831 62.0029C218.836 59.4019 218.337 56.6434 218.337 53.72H216.337ZM217.976 62.7505C219.142 65.4986 220.728 67.9218 222.735 70.0125L224.178 68.6275C222.345 66.7182 220.891 64.5014 219.817 61.9695L217.976 62.7505ZM222.749 70.0271C224.76 72.0378 227.105 73.6277 229.776 74.7962L230.577 72.9638C228.128 71.8923 225.993 70.4421 224.164 68.6129L222.749 70.0271ZM229.786 74.8006C232.554 75.9747 235.487 76.56 238.577 76.56V74.56C235.746 74.56 233.08 74.0253 230.567 72.9594L229.786 74.8006ZM305.312 53.24L306.117 53.8339L306.556 53.2398L306.117 52.6458L305.312 53.24ZM279.872 18.8V17.8H277.891L279.068 19.3941L279.872 18.8ZM299.672 18.8L300.486 18.2183L300.187 17.8H299.672V18.8ZM315.633 41.12L314.819 41.7016L315.636 42.8435L316.448 41.6987L315.633 41.12ZM331.473 18.8V17.8H330.956L330.657 18.2212L331.473 18.8ZM350.673 18.8L351.481 19.3878L352.635 17.8H350.673V18.8ZM325.473 53.48L324.664 52.8922L324.228 53.4921L324.675 54.0834L325.473 53.48ZM352.353 89V90H354.363L353.15 88.3966L352.353 89ZM332.552 89L331.746 89.5914L332.046 90H332.552V89ZM315.393 65.6L316.199 65.0086L315.381 63.8933L314.578 65.0196L315.393 65.6ZM298.712 89V90H299.228L299.527 89.5804L298.712 89ZM278.913 89L278.108 88.4061L276.931 90H278.913V89ZM306.117 52.6458L280.677 18.2058L279.068 19.3941L304.508 53.8342L306.117 52.6458ZM279.872 19.8H299.672V17.8H279.872V19.8ZM298.859 19.3816L314.819 41.7016L316.446 40.5383L300.486 18.2183L298.859 19.3816ZM316.448 41.6987L332.288 19.3787L330.657 18.2212L314.817 40.5413L316.448 41.6987ZM331.473 19.8H350.673V17.8H331.473V19.8ZM349.864 18.2122L324.664 52.8922L326.281 54.0678L351.481 19.3878L349.864 18.2122ZM324.675 54.0834L351.555 89.6034L353.15 88.3966L326.27 52.8766L324.675 54.0834ZM352.353 88H332.552V90H352.353V88ZM333.359 88.4086L316.199 65.0086L314.586 66.1914L331.746 89.5914L333.359 88.4086ZM314.578 65.0196L297.898 88.4196L299.527 89.5804L316.207 66.1805L314.578 65.0196ZM298.712 88H278.913V90H298.712V88ZM279.717 89.5939L306.117 53.8339L304.508 52.6461L278.108 88.4061L279.717 89.5939ZM381.543 85.52L382.468 85.9004L382.629 85.5107L382.462 85.1237L381.543 85.52ZM352.743 18.8V17.8H351.223L351.825 19.1963L352.743 18.8ZM370.023 18.8L370.947 18.4177L370.692 17.8H370.023V18.8ZM389.583 66.08L388.659 66.4623L389.61 68.7595L390.515 66.444L389.583 66.08ZM408.063 18.8V17.8H407.381L407.132 18.436L408.063 18.8ZM425.103 18.8L426.029 19.1779L426.592 17.8H425.103V18.8ZM383.223 121.4V122.4H383.895L384.149 121.778L383.223 121.4ZM366.783 121.4L365.859 121.02L365.291 122.4H366.783V121.4ZM382.462 85.1237L353.662 18.4037L351.825 19.1963L380.625 85.9163L382.462 85.1237ZM352.743 19.8H370.023V17.8H352.743V19.8ZM369.099 19.1823L388.659 66.4623L390.507 65.6977L370.947 18.4177L369.099 19.1823ZM390.515 66.444L408.995 19.164L407.132 18.436L388.652 65.716L390.515 66.444ZM408.063 19.8H425.103V17.8H408.063V19.8ZM424.178 18.4221L382.298 121.022L384.149 121.778L426.029 19.1779L424.178 18.4221ZM383.223 120.4H366.783V122.4H383.223V120.4ZM367.708 121.78L382.468 85.9004L380.619 85.1396L365.859 121.02L367.708 121.78ZM470.137 85.76L469.649 86.633L469.659 86.6384L470.137 85.76ZM455.977 74.48L455.357 73.6954L454.524 74.3539L455.231 75.146L455.977 74.48ZM470.857 62.72L471.721 62.2161L471.141 61.2213L470.237 61.9354L470.857 62.72ZM479.137 71.6L478.602 72.4445L478.609 72.4492L478.617 72.4538L479.137 71.6ZM499.897 71L499.178 70.305L499.172 70.3113L499.166 70.3177L499.897 71ZM501.817 58.16L501.041 58.7906L501.817 58.16ZM497.737 54.92L497.241 55.7882L497.257 55.7973L497.273 55.8058L497.737 54.92ZM491.857 52.4L491.541 53.3487L491.551 53.352L491.857 52.4ZM485.137 50.24L484.829 51.1913L484.841 51.1951L485.137 50.24ZM468.217 42.68L467.58 43.4504L467.594 43.4623L467.609 43.4736L468.217 42.68ZM462.457 35.72L461.568 36.1773L461.576 36.1927L461.584 36.2078L462.457 35.72ZM462.457 15.44L463.361 15.8681L462.457 15.44ZM468.457 7.52L469.116 8.27258L469.117 8.27116L468.457 7.52ZM477.697 2.12L477.362 1.17776L477.355 1.1802L477.697 2.12ZM498.817 1.15999L498.594 2.13487L498.6 2.13618L498.817 1.15999ZM506.617 3.8L506.182 4.70062L506.194 4.70618L506.617 3.8ZM513.097 7.87999L512.457 8.64821L512.474 8.66258L512.492 8.67615L513.097 7.87999ZM518.737 12.92L519.342 13.7166L520.235 13.0389L519.46 12.2288L518.737 12.92ZM505.297 23.12L504.467 23.6774L505.058 24.5572L505.902 23.9166L505.297 23.12ZM480.337 17.6L481.015 18.3348L480.337 17.6ZM478.657 29.12L477.876 29.7447L478.657 29.12ZM482.497 32.36L481.983 33.2175L482.008 33.2324L482.033 33.2458L482.497 32.36ZM495.097 37.04L494.781 37.9887L494.789 37.9912L495.097 37.04ZM503.977 40.4L503.58 41.3179L503.595 41.3242L503.61 41.3302L503.977 40.4ZM512.137 45.2L511.497 45.9682L511.511 45.9797L511.525 45.9907L512.137 45.2ZM518.137 52.4L517.253 52.8668L517.258 52.8771L518.137 52.4ZM518.377 73.04L517.453 72.657L518.377 73.04ZM512.497 81.8L513.193 82.5182L513.199 82.5127L513.204 82.5071L512.497 81.8ZM503.017 87.92L503.392 88.8471L503.4 88.8437L503.409 88.8402L503.017 87.92ZM490.177 89.2C482.379 89.2 475.873 87.7426 470.615 84.8816L469.659 86.6384C475.281 89.6974 482.136 91.2 490.177 91.2V89.2ZM470.625 84.8871C465.278 81.8992 460.646 78.2081 456.723 73.814L455.231 75.146C459.308 79.7119 464.116 83.5408 469.649 86.6329L470.625 84.8871ZM456.597 75.2646L471.477 63.5046L470.237 61.9354L455.357 73.6954L456.597 75.2646ZM469.993 63.2239C472.302 67.1819 475.168 70.2672 478.602 72.4445L479.673 70.7555C476.546 68.7728 473.892 65.9381 471.721 62.2161L469.993 63.2239ZM478.617 72.4538C482.06 74.5535 485.881 75.6 490.057 75.6V73.6C486.233 73.6 482.774 72.6465 479.658 70.7462L478.617 72.4538ZM490.057 75.6C494.562 75.6 498.144 74.3436 500.628 71.6823L499.166 70.3177C497.17 72.4564 494.192 73.6 490.057 73.6V75.6ZM500.616 71.695C503.097 69.1285 504.377 66.1659 504.377 62.84H502.377C502.377 65.5941 501.337 68.0715 499.178 70.305L500.616 71.695ZM504.377 62.84C504.377 60.7985 503.795 59.0084 502.593 57.5294L501.041 58.7906C501.919 59.8716 502.377 61.2015 502.377 62.84H504.377ZM502.593 57.5294C501.456 56.1294 499.984 54.9678 498.201 54.0342L497.273 55.8058C498.851 56.6322 500.099 57.6306 501.041 58.7906L502.593 57.5294ZM498.233 54.0518C496.482 53.0509 494.456 52.1848 492.163 51.448L491.551 53.352C493.739 54.0552 495.633 54.8691 497.241 55.7882L498.233 54.0518ZM492.173 51.4513C490.006 50.729 487.76 50.0069 485.434 49.2849L484.841 51.1951C487.155 51.9131 489.388 52.631 491.541 53.3487L492.173 51.4513ZM485.446 49.2888C482.501 48.3338 479.556 47.2991 476.611 46.1847L475.903 48.0553C478.878 49.1809 481.853 50.2262 484.829 51.1912L485.446 49.2888ZM476.611 46.1847C473.738 45.0976 471.145 43.6643 468.826 41.8864L467.609 43.4736C470.09 45.3757 472.856 46.9024 475.903 48.0553L476.611 46.1847ZM468.855 41.9096C466.633 40.0712 464.792 37.8481 463.33 35.2322L461.584 36.2078C463.162 39.0319 465.161 41.4488 467.58 43.4504L468.855 41.9096ZM463.346 35.2626C461.999 32.6421 461.297 29.33 461.297 25.28H459.297C459.297 29.55 460.036 33.1978 461.568 36.1773L463.346 35.2626ZM461.297 25.28C461.297 21.901 461.987 18.768 463.361 15.8681L461.553 15.0119C460.047 18.1919 459.297 21.619 459.297 25.28H461.297ZM463.361 15.8681C464.742 12.9533 466.658 10.4234 469.116 8.27257L467.799 6.76742C465.137 9.0966 463.053 11.8467 461.553 15.0119L463.361 15.8681ZM469.117 8.27116C471.658 6.03858 474.628 4.30009 478.039 3.05979L477.355 1.1802C473.726 2.4999 470.537 4.36142 467.797 6.76883L469.117 8.27116ZM478.032 3.06221C481.516 1.82371 485.281 1.2 489.337 1.2V-0.800001C485.073 -0.800001 481.079 -0.143711 477.362 1.17778L478.032 3.06221ZM489.337 1.2C492.798 1.2 495.882 1.51481 498.594 2.13485L499.04 0.185135C496.153 -0.474815 492.916 -0.800001 489.337 -0.800001V1.2ZM498.6 2.13618C501.416 2.76182 503.941 3.6185 506.182 4.70055L507.052 2.89944C504.653 1.74149 501.979 0.838173 499.034 0.183807L498.6 2.13618ZM506.194 4.70618C508.521 5.79191 510.607 7.10656 512.457 8.64821L513.737 7.11177C511.747 5.45343 509.513 4.04808 507.04 2.89381L506.194 4.70618ZM512.492 8.67615C514.45 10.1639 516.29 11.8087 518.015 13.6112L519.46 12.2288C517.664 10.3513 515.745 8.6361 513.702 7.08383L512.492 8.67615ZM518.133 12.1234L504.693 22.3234L505.902 23.9166L519.342 13.7166L518.133 12.1234ZM506.127 22.5626C502.18 16.6832 496.587 13.72 489.457 13.72V15.72C495.927 15.72 500.895 18.3568 504.467 23.6774L506.127 22.5626ZM489.457 13.72C485.31 13.72 481.988 14.7154 479.659 16.8652L481.015 18.3348C482.846 16.6446 485.605 15.72 489.457 15.72V13.72ZM479.659 16.8652C477.376 18.9721 476.217 21.5974 476.217 24.68H478.217C478.217 22.1626 479.138 20.0679 481.015 18.3348L479.659 16.8652ZM476.217 24.68C476.217 26.6324 476.754 28.3421 477.876 29.7447L479.438 28.4953C478.64 27.4979 478.217 26.2476 478.217 24.68H476.217ZM477.876 29.7447C478.925 31.055 480.302 32.209 481.983 33.2175L483.012 31.5025C481.492 30.591 480.31 29.585 479.438 28.4953L477.876 29.7447ZM482.033 33.2458C483.769 34.1551 485.74 34.975 487.941 35.7087L488.573 33.8113C486.455 33.105 484.585 32.3249 482.961 31.4742L482.033 33.2458ZM487.941 35.7087C490.101 36.4287 492.381 37.1887 494.781 37.9887L495.413 36.0913C493.013 35.2913 490.733 34.5313 488.573 33.8113L487.941 35.7087ZM494.789 37.9912C497.718 38.9412 500.648 40.0499 503.58 41.3179L504.374 39.4821C501.386 38.1901 498.397 37.0588 495.406 36.0888L494.789 37.9912ZM503.61 41.3302C506.556 42.4929 509.183 44.0395 511.497 45.9682L512.777 44.4318C510.292 42.3605 507.479 40.7071 504.344 39.4698L503.61 41.3302ZM511.525 45.9907C513.888 47.82 515.797 50.108 517.253 52.8668L519.022 51.9332C517.438 48.932 515.346 46.42 512.749 44.4093L511.525 45.9907ZM517.258 52.8771C518.677 55.4902 519.417 58.8336 519.417 62.96H521.417C521.417 58.6064 520.638 54.9098 519.016 51.9229L517.258 52.8771ZM519.417 62.96C519.417 66.2643 518.765 69.4944 517.453 72.657L519.301 73.423C520.71 70.0256 521.417 66.5357 521.417 62.96H519.417ZM517.453 72.657C516.145 75.8134 514.259 78.6238 511.79 81.0929L513.204 82.5071C515.855 79.8562 517.89 76.8266 519.301 73.423L517.453 72.657ZM511.801 81.0818C509.341 83.4648 506.289 85.4409 502.626 86.9998L503.409 88.8402C507.265 87.1991 510.533 85.0952 513.193 82.5182L511.801 81.0818ZM502.642 86.9929C499.021 88.4568 494.872 89.2 490.177 89.2V91.2C495.083 91.2 499.493 90.4232 503.392 88.8471L502.642 86.9929ZM529.594 63.44L530.507 63.8484L529.594 63.44ZM534.874 55.16L534.122 54.5015L534.12 54.5032L534.874 55.16ZM542.314 48.2L541.718 47.3972L541.707 47.4056L542.314 48.2ZM550.594 42.32L551.155 43.1483L551.162 43.1431L551.17 43.1378L550.594 42.32ZM556.834 38L557.397 38.8269L557.408 38.8194L557.419 38.8115L556.834 38ZM562.114 33.8L562.781 34.5452L562.792 34.5357L562.802 34.526L562.114 33.8ZM565.714 29.48L564.869 28.946L564.865 28.9522L564.861 28.9585L565.714 29.48ZM564.034 17.36L563.314 18.0531L563.327 18.0672L563.341 18.0808L564.034 17.36ZM545.674 17.72L544.991 16.9897L544.985 16.9953L544.979 17.001L545.674 17.72ZM539.794 26.72L539.344 27.6129L540.307 28.0984L540.719 27.1018L539.794 26.72ZM525.754 19.64L524.844 19.2271L524.447 20.1009L525.304 20.5329L525.754 19.64ZM537.154 5.48L537.731 6.29734L537.733 6.2955L537.154 5.48ZM567.154 2.12L566.806 3.05724L566.813 3.05979L567.154 2.12ZM576.154 7.4L575.484 8.1421L575.491 8.14815L575.498 8.15408L576.154 7.4ZM581.794 15.2L580.873 15.5881L580.877 15.5969L581.794 15.2ZM581.794 34.16L582.699 34.5858L582.704 34.5758L581.794 34.16ZM576.754 41.72L577.487 42.4004L577.493 42.394L577.499 42.3875L576.754 41.72ZM569.674 47.96L569.086 47.1513L569.08 47.1556L569.074 47.16L569.674 47.96ZM561.874 53.48L561.32 52.6479L561.313 52.6525L561.874 53.48ZM555.274 58.04L555.829 58.872L555.84 58.8651L555.85 58.8578L555.274 58.04ZM549.514 62.6L548.825 61.8759L549.514 62.6ZM545.434 67.64L544.573 67.1313L545.434 67.64ZM543.874 73.4H542.874V74.4H543.874V73.4ZM583.354 73.4H584.354V72.4H583.354V73.4ZM583.354 89V90H584.354V89H583.354ZM527.554 89H526.554V90H527.554V89ZM528.554 73.64C528.554 70.0026 529.212 66.7443 530.507 63.8484L528.682 63.0316C527.257 66.2157 526.554 69.7574 526.554 73.64H528.554ZM530.507 63.8484C531.827 60.8974 533.534 58.2213 535.628 55.8168L534.12 54.5032C531.895 57.0587 530.081 59.9026 528.682 63.0316L530.507 63.8484ZM535.627 55.8185C537.823 53.3088 540.254 51.0343 542.922 48.9944L541.707 47.4056C538.935 49.5257 536.406 51.8912 534.122 54.5015L535.627 55.8185ZM542.911 49.0027C545.7 46.931 548.448 44.9795 551.155 43.1483L550.034 41.4917C547.301 43.3405 544.529 45.309 541.718 47.3973L542.911 49.0027ZM551.17 43.1378C553.326 41.6206 555.401 40.1837 557.397 38.8269L556.272 37.1731C554.267 38.5363 552.183 39.9794 550.019 41.5022L551.17 43.1378ZM557.419 38.8115C559.442 37.355 561.23 35.933 562.781 34.5452L561.448 33.0548C559.959 34.387 558.227 35.765 556.25 37.1885L557.419 38.8115ZM562.802 34.526C564.371 33.0393 565.632 31.5321 566.568 30.0014L564.861 28.9585C564.036 30.3079 562.897 31.6807 561.427 33.074L562.802 34.526ZM566.56 30.014C567.613 28.3459 568.154 26.5624 568.154 24.68H566.154C566.154 26.1576 565.735 27.5741 564.869 28.946L566.56 30.014ZM568.154 24.68C568.154 21.5274 567.003 18.8273 564.727 16.6392L563.341 18.0808C565.226 19.8927 566.154 22.0726 566.154 24.68H568.154ZM564.755 16.6669C562.507 14.3285 559.246 13.24 555.154 13.24V15.24C558.903 15.24 561.562 16.2315 563.314 18.0531L564.755 16.6669ZM555.154 13.24C551.096 13.24 547.681 14.4734 544.991 16.9897L546.358 18.4503C548.628 16.3266 551.532 15.24 555.154 15.24V13.24ZM544.979 17.001C542.463 19.433 540.433 22.5553 538.87 26.3382L540.719 27.1018C542.196 23.5247 544.085 20.6469 546.369 18.439L544.979 17.001ZM540.245 25.8271L526.205 18.7471L525.304 20.5329L539.344 27.6129L540.245 25.8271ZM526.665 20.0529C529.319 14.1979 533.011 9.62434 537.731 6.29733L536.578 4.66266C531.538 8.21565 527.629 13.0821 524.844 19.2271L526.665 20.0529ZM537.733 6.2955C542.497 2.91502 548.325 1.2 555.274 1.2V-0.800001C547.983 -0.800001 541.732 1.00498 536.576 4.66449L537.733 6.2955ZM555.274 1.2C559.661 1.2 563.499 1.82677 566.806 3.05722L567.503 1.18277C563.93 -0.14677 559.848 -0.800001 555.274 -0.800001V1.2ZM566.813 3.05979C570.226 4.30102 573.111 5.99841 575.484 8.1421L576.825 6.6579C574.238 4.32158 571.123 2.49898 567.496 1.1802L566.813 3.05979ZM575.498 8.15408C577.862 10.2136 579.652 12.6882 580.873 15.5881L582.716 14.8119C581.377 11.6318 579.407 8.90643 576.811 6.64592L575.498 8.15408ZM580.877 15.5969C582.099 18.4234 582.714 21.4873 582.714 24.8H584.714C584.714 21.2327 584.05 17.8966 582.712 14.8031L580.877 15.5969ZM582.714 24.8C582.714 28.1134 582.099 31.0893 580.885 33.7442L582.704 34.5758C584.05 31.6307 584.714 28.3666 584.714 24.8H582.714ZM580.89 33.7342C579.652 36.3631 578.027 38.8022 576.01 41.0525L577.499 42.3875C579.641 39.9978 581.376 37.3969 582.699 34.5858L580.89 33.7342ZM576.022 41.0395C573.988 43.2291 571.677 45.2667 569.086 47.1513L570.263 48.7687C572.951 46.8133 575.36 44.6909 577.487 42.4004L576.022 41.0395ZM569.074 47.16C566.529 49.069 563.944 50.8983 561.32 52.6479L562.429 54.312C565.085 52.5417 567.7 50.691 570.274 48.76L569.074 47.16ZM561.313 52.6525C559.068 54.1756 556.864 55.6989 554.699 57.2222L555.85 58.8578C558.005 57.3411 560.2 55.8244 562.436 54.3075L561.313 52.6525ZM554.72 57.2079C552.517 58.6762 550.551 60.2317 548.825 61.8759L550.204 63.3241C551.838 61.7683 553.711 60.2838 555.829 58.872L554.72 57.2079ZM548.825 61.8759C547.087 63.531 545.666 65.2821 544.573 67.1313L546.295 68.1487C547.283 66.4779 548.582 64.869 550.204 63.3241L548.825 61.8759ZM544.573 67.1313C543.441 69.0481 542.874 71.1443 542.874 73.4H544.874C544.874 71.4957 545.348 69.7518 546.295 68.1487L544.573 67.1313ZM543.874 74.4H583.354V72.4H543.874V74.4ZM582.354 73.4V89H584.354V73.4H582.354ZM583.354 88H527.554V90H583.354V88ZM528.554 89V73.64H526.554V89H528.554ZM593.93 63.44L594.843 63.8484L593.93 63.44ZM599.21 55.16L598.458 54.5015L598.456 54.5032L599.21 55.16ZM606.65 48.2L606.054 47.3972L606.043 47.4056L606.65 48.2ZM614.93 42.32L615.491 43.1483L615.498 43.1431L615.506 43.1378L614.93 42.32ZM621.17 38L621.733 38.8269L621.744 38.8194L621.755 38.8115L621.17 38ZM626.45 33.8L627.117 34.5452L627.128 34.5357L627.138 34.526L626.45 33.8ZM630.05 29.48L629.205 28.946L629.201 28.9522L629.197 28.9585L630.05 29.48ZM628.37 17.36L627.649 18.0531L627.663 18.0672L627.677 18.0808L628.37 17.36ZM610.01 17.72L609.327 16.9897L609.321 16.9953L609.315 17.001L610.01 17.72ZM604.13 26.72L603.68 27.6129L604.643 28.0984L605.055 27.1018L604.13 26.72ZM590.09 19.64L589.18 19.2271L588.783 20.1009L589.64 20.5329L590.09 19.64ZM601.49 5.48L602.066 6.29734L602.069 6.2955L601.49 5.48ZM631.49 2.12L631.142 3.05724L631.149 3.05979L631.49 2.12ZM640.49 7.4L639.82 8.1421L639.827 8.14815L639.834 8.15408L640.49 7.4ZM646.13 15.2L645.209 15.5881L645.212 15.5969L646.13 15.2ZM646.13 34.16L647.035 34.5858L647.04 34.5758L646.13 34.16ZM641.09 41.72L641.823 42.4004L641.829 42.394L641.835 42.3875L641.09 41.72ZM634.01 47.96L633.422 47.1513L633.416 47.1556L633.41 47.16L634.01 47.96ZM626.21 53.48L625.656 52.6479L625.649 52.6525L626.21 53.48ZM619.61 58.04L620.165 58.872L620.175 58.8651L620.186 58.8578L619.61 58.04ZM613.85 62.6L613.161 61.8759L613.85 62.6ZM609.77 67.64L608.909 67.1313L609.77 67.64ZM608.21 73.4H607.21V74.4H608.21V73.4ZM647.69 73.4H648.69V72.4H647.69V73.4ZM647.69 89V90H648.69V89H647.69ZM591.89 89H590.89V90H591.89V89ZM592.89 73.64C592.89 70.0026 593.548 66.7443 594.843 63.8484L593.018 63.0316C591.593 66.2157 590.89 69.7574 590.89 73.64H592.89ZM594.843 63.8484C596.163 60.8974 597.87 58.2213 599.964 55.8168L598.456 54.5032C596.231 57.0587 594.417 59.9026 593.018 63.0316L594.843 63.8484ZM599.963 55.8185C602.159 53.3088 604.59 51.0343 607.258 48.9944L606.043 47.4056C603.27 49.5257 600.742 51.8912 598.458 54.5015L599.963 55.8185ZM607.247 49.0027C610.036 46.931 612.784 44.9795 615.491 43.1483L614.37 41.4917C611.637 43.3405 608.865 45.309 606.054 47.3973L607.247 49.0027ZM615.506 43.1378C617.662 41.6206 619.737 40.1837 621.733 38.8269L620.608 37.1731C618.603 38.5363 616.519 39.9794 614.355 41.5022L615.506 43.1378ZM621.755 38.8115C623.778 37.355 625.566 35.933 627.117 34.5452L625.784 33.0548C624.295 34.387 622.563 35.765 620.586 37.1885L621.755 38.8115ZM627.138 34.526C628.707 33.0393 629.968 31.5321 630.904 30.0014L629.197 28.9585C628.372 30.3079 627.233 31.6807 625.763 33.074L627.138 34.526ZM630.896 30.014C631.949 28.3459 632.49 26.5624 632.49 24.68H630.49C630.49 26.1576 630.071 27.5741 629.205 28.946L630.896 30.014ZM632.49 24.68C632.49 21.5274 631.339 18.8273 629.063 16.6392L627.677 18.0808C629.562 19.8927 630.49 22.0726 630.49 24.68H632.49ZM629.091 16.6669C626.843 14.3285 623.582 13.24 619.49 13.24V15.24C623.239 15.24 625.898 16.2315 627.649 18.0531L629.091 16.6669ZM619.49 13.24C615.432 13.24 612.017 14.4734 609.327 16.9897L610.693 18.4503C612.964 16.3266 615.868 15.24 619.49 15.24V13.24ZM609.315 17.001C606.799 19.433 604.769 22.5553 603.206 26.3382L605.055 27.1018C606.532 23.5247 608.421 20.6469 610.705 18.439L609.315 17.001ZM604.581 25.8271L590.541 18.7471L589.64 20.5329L603.68 27.6129L604.581 25.8271ZM591.001 20.0529C593.655 14.1979 597.347 9.62434 602.066 6.29733L600.914 4.66266C595.874 8.21565 591.965 13.0821 589.18 19.2271L591.001 20.0529ZM602.069 6.2955C606.832 2.91502 612.661 1.2 619.61 1.2V-0.800001C612.319 -0.800001 606.068 1.00498 600.912 4.66449L602.069 6.2955ZM619.61 1.2C623.997 1.2 627.835 1.82677 631.142 3.05722L631.839 1.18277C628.266 -0.14677 624.184 -0.800001 619.61 -0.800001V1.2ZM631.149 3.05979C634.562 4.30102 637.447 5.99841 639.82 8.1421L641.161 6.6579C638.574 4.32158 635.459 2.49898 631.832 1.1802L631.149 3.05979ZM639.834 8.15408C642.198 10.2136 643.988 12.6882 645.209 15.5881L647.052 14.8119C645.713 11.6318 643.742 8.90643 641.147 6.64592L639.834 8.15408ZM645.212 15.5969C646.435 18.4234 647.05 21.4873 647.05 24.8H649.05C649.05 21.2327 648.386 17.8966 647.048 14.8031L645.212 15.5969ZM647.05 24.8C647.05 28.1134 646.435 31.0893 645.221 33.7442L647.04 34.5758C648.386 31.6307 649.05 28.3666 649.05 24.8H647.05ZM645.226 33.7342C643.988 36.3631 642.363 38.8022 640.346 41.0525L641.835 42.3875C643.977 39.9978 645.712 37.3969 647.035 34.5858L645.226 33.7342ZM640.358 41.0395C638.324 43.2291 636.013 45.2667 633.422 47.1513L634.599 48.7687C637.287 46.8133 639.696 44.6909 641.823 42.4004L640.358 41.0395ZM633.41 47.16C630.865 49.069 628.28 50.8983 625.656 52.6479L626.765 54.312C629.421 52.5417 632.036 50.691 634.61 48.76L633.41 47.16ZM625.649 52.6525C623.404 54.1756 621.2 55.6989 619.035 57.2222L620.186 58.8578C622.341 57.3411 624.536 55.8244 626.772 54.3075L625.649 52.6525ZM619.056 57.2079C616.853 58.6762 614.887 60.2317 613.161 61.8759L614.54 63.3241C616.174 61.7683 618.047 60.2838 620.165 58.872L619.056 57.2079ZM613.161 61.8759C611.423 63.531 610.002 65.2821 608.909 67.1313L610.631 68.1487C611.619 66.4779 612.918 64.869 614.54 63.3241L613.161 61.8759ZM608.909 67.1313C607.777 69.0481 607.21 71.1443 607.21 73.4H609.21C609.21 71.4957 609.684 69.7518 610.631 68.1487L608.909 67.1313ZM608.21 74.4H647.69V72.4H608.21V74.4ZM646.69 73.4V89H648.69V73.4H646.69ZM647.69 88H591.89V90H647.69V88ZM592.89 89V73.64H590.89V89H592.89Z" fill="#064879"/>
</svg>
