<svg width="571" height="461" viewBox="0 0 571 461" fill="none" xmlns="http://www.w3.org/2000/svg">
<rect x="1.61179" y="0.5" width="544.888" height="460" stroke="#064879" stroke-opacity="0.8"/>
<path d="M0 36.9938H546.021" stroke="#064879" stroke-opacity="0.8"/>
<path d="M0 74.9362H546.021" stroke="#064879" stroke-opacity="0.8"/>
<path d="M0.978535 112.879H547" stroke="#064879" stroke-opacity="0.8"/>
<path d="M0 150.821H546.021" stroke="#064879" stroke-opacity="0.8"/>
<path d="M0 188.763H546.021" stroke="#064879" stroke-opacity="0.8"/>
<path d="M0 228.603H546.021" stroke="#064879" stroke-opacity="0.8"/>
<path d="M0 269.391H546.021" stroke="#064879" stroke-opacity="0.8"/>
<path d="M0 311.128H546.021" stroke="#064879" stroke-opacity="0.8"/>
<path d="M0 350.019H546.021" stroke="#064879" stroke-opacity="0.8"/>
<path d="M0 388.91H546.021" stroke="#064879" stroke-opacity="0.8"/>
<path d="M0 424.955H546.021" stroke="#064879" stroke-opacity="0.8"/>
<path d="M504.752 3.05176e-05L504.752 460.175" stroke="#064879" stroke-opacity="0.8"/>
<path d="M460.281 3.05176e-05L460.28 460.175" stroke="#064879" stroke-opacity="0.8"/>
<path d="M415.809 0.824707L415.809 461" stroke="#064879" stroke-opacity="0.8"/>
<path d="M371.337 3.05176e-05L371.337 460.175" stroke="#064879" stroke-opacity="0.8"/>
<path d="M326.866 3.05176e-05L326.866 460.175" stroke="#064879" stroke-opacity="0.8"/>
<path d="M280.171 3.05176e-05L280.171 460.175" stroke="#064879" stroke-opacity="0.8"/>
<path d="M232.364 3.05176e-05L232.364 460.175" stroke="#064879" stroke-opacity="0.8"/>
<path d="M183.445 3.05176e-05L183.445 460.175" stroke="#064879" stroke-opacity="0.8"/>
<path d="M137.862 3.05176e-05L137.862 460.175" stroke="#064879" stroke-opacity="0.8"/>
<path d="M92.2785 0L92.2785 460.175" stroke="#064879" stroke-opacity="0.8"/>
<path d="M50.0305 0L50.0305 460.175" stroke="#064879" stroke-opacity="0.8"/>
<path d="M554.848 4.66894C554.848 3.71256 555.233 2.9974 556.003 2.52344C556.782 2.05794 557.979 1.82519 559.596 1.82519C561.212 1.82519 562.406 2.05794 563.176 2.52344C563.954 2.9974 564.344 3.71256 564.344 4.66895C564.344 5.62533 563.954 6.33626 563.176 6.80176C562.406 7.27572 561.212 7.51269 559.596 7.51269C557.979 7.51269 556.782 7.27572 556.003 6.80176C555.233 6.33626 554.848 5.62532 554.848 4.66894ZM555.647 4.66894C555.647 5.32064 555.965 5.79883 556.6 6.10351C557.243 6.41667 558.242 6.57324 559.596 6.57324C560.95 6.57324 561.944 6.41667 562.579 6.10352C563.222 5.79883 563.544 5.32064 563.544 4.66894C563.544 4.01725 563.222 3.53483 562.579 3.22168C561.944 2.91699 560.95 2.76465 559.596 2.76465C558.242 2.76465 557.243 2.91699 556.6 3.22168C555.965 3.53483 555.647 4.01725 555.647 4.66894ZM564.191 11.8926L555 11.8926L555 10.9912L563.176 10.9912L562.439 8.95996L563.201 8.71875L564.191 11.1182L564.191 11.8926ZM564.356 20.1318L564.356 20.9189L553.908 17.1104L553.908 16.3232L564.356 20.1318ZM564.356 23.8008L564.356 24.5879L553.908 20.7793L553.908 19.9922L564.356 23.8008ZM564.191 34.8457L555 34.8457L555 33.9951L562.566 29.4375L555 29.4375L555 28.5488L564.191 28.5488L564.191 29.3994L556.625 33.957L564.191 33.957L564.191 34.8457ZM563.379 38.0449L559.964 38.0449L559.964 41.3203L559.139 41.3203L559.139 38.0449L555 38.0449L555 37.1309L564.191 37.1309L564.191 42.0566L563.379 42.0566L563.379 38.0449ZM563.366 48.4297L563.366 46.1191L555 46.1191L555 45.2051L563.366 45.2051L563.366 42.8945L564.191 42.8945L564.191 46.1191L564.191 48.4297L563.366 48.4297ZM561.932 54.4473C561.932 55.2005 561.614 55.7845 560.979 56.1992C560.345 56.6224 559.465 56.834 558.339 56.834C557.239 56.834 556.38 56.6097 555.762 56.1611C555.152 55.7126 554.848 55.0905 554.848 54.2949C554.848 53.9818 554.911 53.6855 555.038 53.4062C555.174 53.127 555.36 52.89 555.597 52.6953L552.372 52.6953L552.372 51.8066L561.246 51.8066L561.779 51.8066L561.779 52.6064L560.903 52.6064C561.589 53.055 561.932 53.6686 561.932 54.4473ZM555.647 54.2949C555.647 54.8197 555.876 55.2174 556.333 55.4883C556.79 55.7676 557.459 55.9072 558.339 55.9072C559.244 55.9072 559.926 55.7633 560.383 55.4756C560.848 55.1878 561.081 54.7604 561.081 54.1934C561.081 53.8971 561.013 53.6263 560.878 53.3809C560.751 53.1354 560.544 52.9069 560.256 52.6953L556.409 52.6953C556.172 52.9154 555.986 53.1608 555.851 53.4316C555.715 53.7109 555.647 53.9987 555.647 54.2949ZM561.906 61.1377C561.906 61.4424 561.851 61.709 561.741 61.9375L560.878 61.7471C560.971 61.417 561.018 61.125 561.018 60.8711C561.018 60.2956 560.73 59.8301 560.154 59.4746L555 59.4746L555 58.5859L561.779 58.5859L561.779 59.3857L560.853 59.3857C561.555 59.8428 561.906 60.4268 561.906 61.1377ZM554.848 65.1494C554.848 64.3031 555.148 63.6514 555.749 63.1943C556.358 62.7458 557.239 62.5215 558.39 62.5215C559.541 62.5215 560.417 62.7458 561.018 63.1943C561.627 63.6514 561.932 64.3031 561.932 65.1494C561.932 65.9958 561.627 66.6432 561.018 67.0918C560.417 67.5488 559.541 67.7773 558.39 67.7773C557.239 67.7773 556.358 67.5488 555.749 67.0918C555.148 66.6432 554.848 65.9958 554.848 65.1494ZM555.635 65.1494C555.635 65.708 555.868 66.1312 556.333 66.4189C556.798 66.7067 557.484 66.8506 558.39 66.8506C559.295 66.8506 559.981 66.7067 560.446 66.4189C560.912 66.1312 561.145 65.708 561.145 65.1494C561.145 64.5908 560.912 64.1676 560.446 63.8799C559.981 63.5921 559.295 63.4482 558.39 63.4482C557.484 63.4482 556.798 63.5921 556.333 63.8799C555.868 64.1676 555.635 64.5908 555.635 65.1494ZM552.956 67.9424C553.108 68.3656 553.282 68.6914 553.477 68.9199C553.663 69.1484 553.9 69.3092 554.187 69.4023C554.475 69.5039 554.852 69.5547 555.317 69.5547L561.779 69.5547L561.779 70.4434L555.317 70.4434C554.716 70.4434 554.23 70.3757 553.857 70.2402C553.485 70.1133 553.176 69.8932 552.931 69.5801C552.677 69.2669 552.44 68.8226 552.22 68.2471L552.956 67.9424ZM563.011 69.999C563.011 69.8044 563.066 69.652 563.176 69.542C563.294 69.432 563.459 69.377 563.671 69.377C563.882 69.377 564.048 69.432 564.166 69.542C564.285 69.652 564.344 69.8044 564.344 69.999C564.344 70.1937 564.285 70.346 564.166 70.4561C564.056 70.5661 563.895 70.6211 563.684 70.6211C563.472 70.6211 563.307 70.5661 563.188 70.4561C563.07 70.346 563.011 70.1937 563.011 69.999ZM558.682 77.3496C558.504 77.3496 558.33 77.3369 558.161 77.3115L558.161 73.0967C557.349 73.1305 556.731 73.3125 556.308 73.6426C555.893 73.9811 555.686 74.4635 555.686 75.0898C555.686 75.6823 555.863 76.2197 556.219 76.7021L555.521 77.0449C555.309 76.791 555.144 76.4863 555.025 76.1309C554.915 75.7839 554.86 75.4199 554.86 75.0391C554.86 74.1419 555.169 73.4437 555.787 72.9443C556.413 72.445 557.281 72.1953 558.39 72.1953C559.498 72.1953 560.366 72.4281 560.992 72.8936C561.618 73.359 561.932 74.0023 561.932 74.8232C561.932 75.6188 561.644 76.2367 561.068 76.6768C560.501 77.1253 559.706 77.3496 558.682 77.3496ZM561.145 74.7979C561.145 74.2985 560.954 73.9049 560.573 73.6172C560.201 73.3294 559.642 73.1602 558.897 73.1094L558.897 76.4482C559.6 76.4482 560.15 76.3001 560.548 76.0039C560.946 75.7161 561.145 75.3141 561.145 74.7979ZM554.86 81.374C554.86 80.4854 555.173 79.7913 555.8 79.292C556.426 78.7926 557.298 78.543 558.415 78.543C559.109 78.543 559.723 78.6572 560.256 78.8857C560.789 79.1143 561.2 79.4359 561.487 79.8506C561.784 80.2738 561.932 80.7604 561.932 81.3105C561.932 81.9284 561.75 82.5251 561.386 83.1006L560.687 82.7324C560.975 82.2077 561.119 81.7253 561.119 81.2852C561.119 80.7181 560.886 80.2738 560.421 79.9521C559.964 79.6305 559.321 79.4697 558.491 79.4697C557.569 79.4697 556.87 79.6348 556.396 79.9648C555.923 80.3034 555.686 80.7985 555.686 81.4502C555.686 81.958 555.825 82.4277 556.104 82.8594L555.419 83.1768C555.241 82.9567 555.102 82.6859 555 82.3643C554.907 82.0511 554.86 81.721 554.86 81.374ZM554.924 86.8076C554.924 86.1644 555.102 85.6777 555.457 85.3477C555.821 85.0176 556.35 84.8525 557.044 84.8525L561.043 84.8525L561.043 83.748L561.779 83.748L561.779 84.8525L563.811 84.8525L563.811 85.7412L561.779 85.7412L561.779 87.6582L561.043 87.6582L561.043 85.7412L557.171 85.7412C556.672 85.7412 556.303 85.8385 556.066 86.0332C555.829 86.2279 555.711 86.5283 555.711 86.9346C555.711 87.1969 555.749 87.4212 555.825 87.6074L555.076 87.7471C554.975 87.5186 554.924 87.2054 554.924 86.8076Z" fill="#064879"/>
<path d="M555.774 440.522L555 440.522L555 435.495L555.787 435.495L559.799 438.529C560.273 438.893 560.666 439.147 560.979 439.291C561.301 439.435 561.623 439.507 561.944 439.507C562.427 439.507 562.808 439.363 563.087 439.075C563.366 438.796 563.506 438.407 563.506 437.907C563.506 437.569 563.442 437.222 563.315 436.866C563.188 436.519 563.015 436.202 562.795 435.914L563.506 435.482C563.76 435.787 563.963 436.164 564.115 436.612C564.268 437.069 564.344 437.522 564.344 437.971C564.344 438.707 564.132 439.299 563.709 439.748C563.294 440.197 562.74 440.421 562.046 440.421C561.631 440.421 561.208 440.328 560.776 440.142C560.353 439.955 559.862 439.651 559.304 439.228L555.774 436.536L555.774 440.522ZM554.848 444.915C554.848 443.959 555.233 443.243 556.003 442.77C556.782 442.304 557.979 442.071 559.596 442.071C561.212 442.071 562.406 442.304 563.176 442.77C563.954 443.243 564.344 443.959 564.344 444.915C564.344 445.871 563.954 446.582 563.176 447.048C562.406 447.522 561.212 447.759 559.596 447.759C557.979 447.759 556.782 447.522 556.003 447.048C555.233 446.582 554.848 445.871 554.848 444.915ZM555.647 444.915C555.647 445.567 555.965 446.045 556.6 446.35C557.243 446.663 558.242 446.819 559.596 446.819C560.95 446.819 561.944 446.663 562.579 446.35C563.222 446.045 563.544 445.567 563.544 444.915C563.544 444.263 563.222 443.781 562.579 443.468C561.944 443.163 560.95 443.011 559.596 443.011C558.242 443.011 557.243 443.163 556.6 443.468C555.965 443.781 555.647 444.263 555.647 444.915ZM555.774 454.068L555 454.068L555 449.041L555.787 449.041L559.799 452.075C560.273 452.439 560.666 452.693 560.979 452.837C561.301 452.981 561.623 453.053 561.944 453.053C562.427 453.053 562.808 452.909 563.087 452.621C563.366 452.342 563.506 451.952 563.506 451.453C563.506 451.115 563.442 450.768 563.315 450.412C563.188 450.065 563.015 449.748 562.795 449.46L563.506 449.028C563.76 449.333 563.963 449.71 564.115 450.158C564.268 450.615 564.344 451.068 564.344 451.517C564.344 452.253 564.132 452.845 563.709 453.294C563.294 453.743 562.74 453.967 562.046 453.967C561.631 453.967 561.208 453.874 560.776 453.687C560.353 453.501 559.862 453.197 559.304 452.773L555.774 450.082L555.774 454.068ZM555.774 460.276L555 460.276L555 455.249L555.787 455.249L559.799 458.283C560.273 458.647 560.666 458.901 560.979 459.045C561.301 459.189 561.623 459.261 561.944 459.261C562.427 459.261 562.808 459.117 563.087 458.829C563.366 458.55 563.506 458.16 563.506 457.661C563.506 457.323 563.442 456.976 563.315 456.62C563.188 456.273 563.015 455.956 562.795 455.668L563.506 455.236C563.76 455.541 563.963 455.918 564.115 456.366C564.268 456.823 564.344 457.276 564.344 457.725C564.344 458.461 564.132 459.053 563.709 459.502C563.294 459.951 562.74 460.175 562.046 460.175C561.631 460.175 561.208 460.082 560.776 459.896C560.353 459.709 559.862 459.405 559.304 458.981L555.774 456.29L555.774 460.276Z" fill="#064879"/>
</svg>
